<svg width="2511" height="961" viewBox="0 0 2511 961" fill="none" xmlns="http://www.w3.org/2000/svg">
<path d="M302.002 80H1742V960H302.002V80Z" fill="url(#paint0_linear)"/>
<rect opacity="0.111111" width="415.408" height="436.244" rx="82.0358" transform="matrix(-0.304321 0.95257 -0.952395 -0.304866 869.189 289.414)" stroke="#E672BD" stroke-width="0.592481" stroke-linecap="round"/>
<rect opacity="0.222222" width="423.612" height="444.448" rx="82.0358" transform="matrix(-0.304321 0.95257 -0.952395 -0.304866 866.58 294.594)" stroke="#DA6DC5" stroke-width="0.774782" stroke-linecap="round"/>
<rect opacity="0.333333" width="431.815" height="452.651" rx="82.0358" transform="matrix(-0.304321 0.95257 -0.952395 -0.304866 863.969 299.775)" stroke="#CE69CE" stroke-width="0.957084" stroke-linecap="round"/>
<rect opacity="0.444444" width="440.019" height="460.855" rx="82.0358" transform="matrix(-0.304321 0.95257 -0.952395 -0.304866 861.359 304.955)" stroke="#C265D6" stroke-width="1.13939" stroke-linecap="round"/>
<rect opacity="0.555556" width="448.222" height="469.058" rx="82.0358" transform="matrix(-0.304321 0.95257 -0.952395 -0.304866 858.75 310.136)" stroke="#B660DE" stroke-width="1.32169" stroke-linecap="round"/>
<rect opacity="0.666667" width="456.426" height="477.262" rx="82.0358" transform="matrix(-0.304321 0.95257 -0.952395 -0.304866 856.141 315.316)" stroke="#AA5CE6" stroke-width="1.50399" stroke-linecap="round"/>
<rect opacity="0.777778" width="464.63" height="485.465" rx="82.0358" transform="matrix(-0.304321 0.95257 -0.952395 -0.304866 853.529 320.497)" stroke="#9E58EF" stroke-width="1.68629" stroke-linecap="round"/>
<rect opacity="0.888889" width="472.833" height="493.669" rx="82.0358" transform="matrix(-0.304321 0.95257 -0.952395 -0.304866 850.92 325.677)" stroke="#9253F7" stroke-width="1.86859" stroke-linecap="round"/>
<rect width="481.037" height="501.873" rx="82.0358" transform="matrix(-0.304321 0.95257 -0.952395 -0.304866 848.311 330.858)" stroke="#864FFF" stroke-width="2.05089" stroke-linecap="round"/>
<g filter="url(#filter0_f)">
<path d="M120.957 446C502.003 35 693.003 292.75 946.003 345C1199 397.25 1235 475 1403 460C1571 445 2390 705 2390 705L120.957 705L120.957 446Z" fill="url(#paint1_linear)"/>
</g>
<path d="M1570.38 507.001C1357.58 425.108 1182.48 502.022 960.502 521.001C738.519 539.981 751.89 516.047 586.502 497.501C421.114 478.955 327.01 577.049 247.888 596.83C247.888 684.001 247.888 818.813 247.888 818.813L1824.07 818.813L1805.55 583.926C1805.55 583.926 1783.57 589.044 1570.38 507.001Z" fill="url(#paint2_linear)"/>
<path d="M1524.5 664.001C1311.7 582.108 1214.61 663.865 992.623 682.845C770.64 701.825 740.534 661.28 575.146 642.734C409.758 624.188 359.977 719.109 280.855 738.89C280.855 826.823 280.855 960.873 280.855 960.873L1857.04 960.873L1857.04 636.69C1857.04 636.69 1737.69 746.044 1524.5 664.001Z" fill="url(#paint3_linear)"/>
<g clip-path="url(#clip0)">
<g clip-path="url(#clip1)">
<circle cx="340.502" cy="120.5" r="0.5" fill="white" fill-opacity="0.5"/>
<circle cx="370.502" cy="140.5" r="0.5" fill="white" fill-opacity="0.5"/>
<circle cx="410.502" cy="130.5" r="0.5" fill="white" fill-opacity="0.5"/>
<circle cx="430.502" cy="100.5" r="0.5" fill="white" fill-opacity="0.5"/>
<circle cx="480.502" cy="120.5" r="0.5" fill="white" fill-opacity="0.5"/>
<circle cx="539.502" cy="130.5" r="0.5" fill="white" fill-opacity="0.5"/>
<circle cx="569.502" cy="150.5" r="0.5" fill="white" fill-opacity="0.5"/>
<circle cx="609.502" cy="140.5" r="0.5" fill="white" fill-opacity="0.5"/>
<circle cx="629.502" cy="110.5" r="0.5" fill="white" fill-opacity="0.5"/>
<circle cx="679.502" cy="130.5" r="0.5" fill="white" fill-opacity="0.5"/>
<circle cx="338.502" cy="191.5" r="0.5" fill="white" fill-opacity="0.5"/>
<circle cx="368.502" cy="211.5" r="0.5" fill="white" fill-opacity="0.5"/>
<circle cx="408.502" cy="201.5" r="0.5" fill="white" fill-opacity="0.5"/>
<circle cx="428.502" cy="171.5" r="0.5" fill="white" fill-opacity="0.5"/>
<circle cx="478.502" cy="191.5" r="0.5" fill="white" fill-opacity="0.5"/>
<circle cx="682.502" cy="120.5" r="0.5" fill="white" fill-opacity="0.5"/>
<circle cx="712.502" cy="140.5" r="0.5" fill="white" fill-opacity="0.5"/>
<circle cx="752.502" cy="130.5" r="0.5" fill="white" fill-opacity="0.5"/>
<circle cx="772.502" cy="100.5" r="0.5" fill="white" fill-opacity="0.5"/>
<circle cx="822.502" cy="120.5" r="0.5" fill="white" fill-opacity="0.5"/>
<circle cx="881.502" cy="130.5" r="0.5" fill="white" fill-opacity="0.5"/>
<circle cx="911.502" cy="150.5" r="0.5" fill="white" fill-opacity="0.5"/>
<circle cx="951.502" cy="140.5" r="0.5" fill="white" fill-opacity="0.5"/>
<circle cx="971.502" cy="110.5" r="0.5" fill="white" fill-opacity="0.5"/>
<circle cx="1021.5" cy="130.5" r="0.5" fill="white" fill-opacity="0.5"/>
<circle cx="680.502" cy="191.5" r="0.5" fill="white" fill-opacity="0.5"/>
<circle cx="710.502" cy="211.5" r="0.5" fill="white" fill-opacity="0.5"/>
<circle cx="750.502" cy="201.5" r="0.5" fill="white" fill-opacity="0.5"/>
<circle cx="770.502" cy="171.5" r="0.5" fill="white" fill-opacity="0.5"/>
<circle cx="820.502" cy="191.5" r="0.5" fill="white" fill-opacity="0.5"/>
<circle cx="1024.5" cy="120.5" r="0.5" fill="white" fill-opacity="0.5"/>
<circle cx="1054.5" cy="140.5" r="0.5" fill="white" fill-opacity="0.5"/>
<circle cx="1094.5" cy="130.5" r="0.5" fill="white" fill-opacity="0.5"/>
<circle cx="1114.5" cy="100.5" r="0.5" fill="white" fill-opacity="0.5"/>
<circle cx="1164.5" cy="120.5" r="0.5" fill="white" fill-opacity="0.5"/>
<circle cx="1223.5" cy="130.5" r="0.5" fill="white" fill-opacity="0.5"/>
<circle cx="1253.5" cy="150.5" r="0.5" fill="white" fill-opacity="0.5"/>
<circle cx="1293.5" cy="140.5" r="0.5" fill="white" fill-opacity="0.5"/>
<circle cx="1313.5" cy="110.5" r="0.5" fill="white" fill-opacity="0.5"/>
<circle cx="1363.5" cy="130.5" r="0.5" fill="white" fill-opacity="0.5"/>
<circle cx="1022.5" cy="191.5" r="0.5" fill="white" fill-opacity="0.5"/>
<circle cx="1052.5" cy="211.5" r="0.5" fill="white" fill-opacity="0.5"/>
<circle cx="1092.5" cy="201.5" r="0.5" fill="white" fill-opacity="0.5"/>
<circle cx="1112.5" cy="171.5" r="0.5" fill="white" fill-opacity="0.5"/>
<circle cx="1162.5" cy="191.5" r="0.5" fill="white" fill-opacity="0.5"/>
<circle cx="1366.5" cy="120.5" r="0.5" fill="white" fill-opacity="0.5"/>
<circle cx="1396.5" cy="140.5" r="0.5" fill="white" fill-opacity="0.5"/>
<circle cx="1436.5" cy="130.5" r="0.5" fill="white" fill-opacity="0.5"/>
<circle cx="1456.5" cy="100.5" r="0.5" fill="white" fill-opacity="0.5"/>
<circle cx="1506.5" cy="120.5" r="0.5" fill="white" fill-opacity="0.5"/>
<circle cx="1565.5" cy="130.5" r="0.5" fill="white" fill-opacity="0.5"/>
<circle cx="1595.5" cy="150.5" r="0.5" fill="white" fill-opacity="0.5"/>
<circle cx="1635.5" cy="140.5" r="0.5" fill="white" fill-opacity="0.5"/>
<circle cx="1655.5" cy="110.5" r="0.5" fill="white" fill-opacity="0.5"/>
<circle cx="1705.5" cy="130.5" r="0.5" fill="white" fill-opacity="0.5"/>
<circle cx="1364.5" cy="191.5" r="0.5" fill="white" fill-opacity="0.5"/>
<circle cx="1394.5" cy="211.5" r="0.5" fill="white" fill-opacity="0.5"/>
<circle cx="1434.5" cy="201.5" r="0.5" fill="white" fill-opacity="0.5"/>
<circle cx="1454.5" cy="171.5" r="0.5" fill="white" fill-opacity="0.5"/>
<circle cx="1504.5" cy="191.5" r="0.5" fill="white" fill-opacity="0.5"/>
</g>
<g clip-path="url(#clip2)">
<circle cx="340.502" cy="232.5" r="0.5" fill="white" fill-opacity="0.5"/>
<circle cx="370.502" cy="252.5" r="0.5" fill="white" fill-opacity="0.5"/>
<circle cx="410.502" cy="242.5" r="0.5" fill="white" fill-opacity="0.5"/>
<circle cx="430.502" cy="212.5" r="0.5" fill="white" fill-opacity="0.5"/>
<circle cx="480.502" cy="232.5" r="0.5" fill="white" fill-opacity="0.5"/>
<circle cx="539.502" cy="242.5" r="0.5" fill="white" fill-opacity="0.5"/>
<circle cx="569.502" cy="262.5" r="0.5" fill="white" fill-opacity="0.5"/>
<circle cx="609.502" cy="252.5" r="0.5" fill="white" fill-opacity="0.5"/>
<circle cx="629.502" cy="222.5" r="0.5" fill="white" fill-opacity="0.5"/>
<circle cx="679.502" cy="242.5" r="0.5" fill="white" fill-opacity="0.5"/>
<circle cx="338.502" cy="303.5" r="0.5" fill="white" fill-opacity="0.5"/>
<circle cx="368.502" cy="323.5" r="0.5" fill="white" fill-opacity="0.5"/>
<circle cx="408.502" cy="313.5" r="0.5" fill="white" fill-opacity="0.5"/>
<circle cx="428.502" cy="283.5" r="0.5" fill="white" fill-opacity="0.5"/>
<circle cx="478.502" cy="303.5" r="0.5" fill="white" fill-opacity="0.5"/>
<circle cx="682.502" cy="232.5" r="0.5" fill="white" fill-opacity="0.5"/>
<circle cx="712.502" cy="252.5" r="0.5" fill="white" fill-opacity="0.5"/>
<circle cx="752.502" cy="242.5" r="0.5" fill="white" fill-opacity="0.5"/>
<circle cx="772.502" cy="212.5" r="0.5" fill="white" fill-opacity="0.5"/>
<circle cx="822.502" cy="232.5" r="0.5" fill="white" fill-opacity="0.5"/>
<circle cx="881.502" cy="242.5" r="0.5" fill="white" fill-opacity="0.5"/>
<circle cx="911.502" cy="262.5" r="0.5" fill="white" fill-opacity="0.5"/>
<circle cx="951.502" cy="252.5" r="0.5" fill="white" fill-opacity="0.5"/>
<circle cx="971.502" cy="222.5" r="0.5" fill="white" fill-opacity="0.5"/>
<circle cx="1021.5" cy="242.5" r="0.5" fill="white" fill-opacity="0.5"/>
<circle cx="680.502" cy="303.5" r="0.5" fill="white" fill-opacity="0.5"/>
<circle cx="710.502" cy="323.5" r="0.5" fill="white" fill-opacity="0.5"/>
<circle cx="750.502" cy="313.5" r="0.5" fill="white" fill-opacity="0.5"/>
<circle cx="770.502" cy="283.5" r="0.5" fill="white" fill-opacity="0.5"/>
<circle cx="820.502" cy="303.5" r="0.5" fill="white" fill-opacity="0.5"/>
<circle cx="1024.5" cy="232.5" r="0.5" fill="white" fill-opacity="0.5"/>
<circle cx="1054.5" cy="252.5" r="0.5" fill="white" fill-opacity="0.5"/>
<circle cx="1094.5" cy="242.5" r="0.5" fill="white" fill-opacity="0.5"/>
<circle cx="1114.5" cy="212.5" r="0.5" fill="white" fill-opacity="0.5"/>
<circle cx="1164.5" cy="232.5" r="0.5" fill="white" fill-opacity="0.5"/>
<circle cx="1223.5" cy="242.5" r="0.5" fill="white" fill-opacity="0.5"/>
<circle cx="1253.5" cy="262.5" r="0.5" fill="white" fill-opacity="0.5"/>
<circle cx="1293.5" cy="252.5" r="0.5" fill="white" fill-opacity="0.5"/>
<circle cx="1313.5" cy="222.5" r="0.5" fill="white" fill-opacity="0.5"/>
<circle cx="1363.5" cy="242.5" r="0.5" fill="white" fill-opacity="0.5"/>
<circle cx="1022.5" cy="303.5" r="0.5" fill="white" fill-opacity="0.5"/>
<circle cx="1052.5" cy="323.5" r="0.5" fill="white" fill-opacity="0.5"/>
<circle cx="1092.5" cy="313.5" r="0.5" fill="white" fill-opacity="0.5"/>
<circle cx="1112.5" cy="283.5" r="0.5" fill="white" fill-opacity="0.5"/>
<circle cx="1162.5" cy="303.5" r="0.5" fill="white" fill-opacity="0.5"/>
<circle cx="1366.5" cy="232.5" r="0.5" fill="white" fill-opacity="0.5"/>
<circle cx="1396.5" cy="252.5" r="0.5" fill="white" fill-opacity="0.5"/>
<circle cx="1436.5" cy="242.5" r="0.5" fill="white" fill-opacity="0.5"/>
<circle cx="1456.5" cy="212.5" r="0.5" fill="white" fill-opacity="0.5"/>
<circle cx="1506.5" cy="232.5" r="0.5" fill="white" fill-opacity="0.5"/>
<circle cx="1565.5" cy="242.5" r="0.5" fill="white" fill-opacity="0.5"/>
<circle cx="1595.5" cy="262.5" r="0.5" fill="white" fill-opacity="0.5"/>
<circle cx="1635.5" cy="252.5" r="0.5" fill="white" fill-opacity="0.5"/>
<circle cx="1655.5" cy="222.5" r="0.5" fill="white" fill-opacity="0.5"/>
<circle cx="1705.5" cy="242.5" r="0.5" fill="white" fill-opacity="0.5"/>
<circle cx="1364.5" cy="303.5" r="0.5" fill="white" fill-opacity="0.5"/>
<circle cx="1394.5" cy="323.5" r="0.5" fill="white" fill-opacity="0.5"/>
<circle cx="1434.5" cy="313.5" r="0.5" fill="white" fill-opacity="0.5"/>
<circle cx="1454.5" cy="283.5" r="0.5" fill="white" fill-opacity="0.5"/>
<circle cx="1504.5" cy="303.5" r="0.5" fill="white" fill-opacity="0.5"/>
</g>
</g>
<rect x="302.002" y="80" width="1440" height="400" fill="url(#paint4_linear)"/>
<defs>
<filter id="filter0_f" x="0.957031" y="97.241" width="2509.05" height="727.759" filterUnits="userSpaceOnUse" color-interpolation-filters="sRGB">
<feFlood flood-opacity="0" result="BackgroundImageFix"/>
<feBlend mode="normal" in="SourceGraphic" in2="BackgroundImageFix" result="shape"/>
<feGaussianBlur stdDeviation="60" result="effect1_foregroundBlur"/>
</filter>
<linearGradient id="paint0_linear" x1="1022.33" y1="80.0003" x2="1022.33" y2="960" gradientUnits="userSpaceOnUse">
<stop stop-color="#4316DB"/>
<stop offset="1" stop-color="#9076E7"/>
</linearGradient>
<linearGradient id="paint1_linear" x1="274.841" y1="124.483" x2="274.841" y2="651" gradientUnits="userSpaceOnUse">
<stop stop-color="#FF6869"/>
<stop offset="0.484375" stop-color="#FF927A"/>
<stop offset="1" stop-color="#FF5F8F" stop-opacity="0"/>
</linearGradient>
<linearGradient id="paint2_linear" x1="1044.51" y1="381.941" x2="1005.11" y2="691.323" gradientUnits="userSpaceOnUse">
<stop stop-color="#61D2CC" stop-opacity="0.6"/>
<stop offset="1" stop-color="white" stop-opacity="0"/>
</linearGradient>
<linearGradient id="paint3_linear" x1="1129.88" y1="531.644" x2="1129.88" y2="960.502" gradientUnits="userSpaceOnUse">
<stop stop-color="#BEFFFF" stop-opacity="0.25"/>
<stop offset="1" stop-color="#F2F6FF"/>
</linearGradient>
<linearGradient id="paint4_linear" x1="1022" y1="80" x2="1022" y2="480" gradientUnits="userSpaceOnUse">
<stop stop-opacity="0.3"/>
<stop offset="1" stop-opacity="0"/>
</linearGradient>
<clipPath id="clip0">
<rect width="1368" height="224" fill="white" transform="translate(338.002 100)"/>
</clipPath>
<clipPath id="clip1">
<rect width="1368" height="112" fill="white" transform="translate(338.002 100)"/>
</clipPath>
<clipPath id="clip2">
<rect width="1368" height="112" fill="white" transform="translate(338.002 212)"/>
</clipPath>
</defs>
</svg>
